<?xml version="1.0" encoding="utf-8"?>
<!-- Generator: Adobe Illustrator 16.0.4, SVG Export Plug-In . SVG Version: 6.00 Build 0)  -->
<!DOCTYPE svg PUBLIC "-//W3C//DTD SVG 1.1//EN" "http://www.w3.org/Graphics/SVG/1.1/DTD/svg11.dtd">
<svg version="1.1" id="Layer_1" xmlns="http://www.w3.org/2000/svg" xmlns:xlink="http://www.w3.org/1999/xlink" x="0px" y="0px"
	 width="511.48px" height="167.312px" viewBox="0 0 511.48 167.312" enable-background="new 0 0 511.48 167.312"
	 xml:space="preserve">
<g>
	<g>
		<path d="M511.48,144.699c0,12.486-10.121,22.612-22.605,22.612H22.61C10.125,167.312,0,157.186,0,144.699V22.61
			C0,10.125,10.125,0,22.61,0h466.264c12.484,0,22.605,10.125,22.605,22.61V144.699z"/>
		<path fill="#FFFFFF" d="M88.336,28.613H46.673c-4.992,0-9.041,4.046-9.041,9.041v92.303c0,4.996,4.049,9.045,9.041,9.045h41.663
			c4.996,0,9.046-4.049,9.046-9.045V37.654C97.382,32.659,93.332,28.613,88.336,28.613z M67.505,132.363
			c-3.325,0-6.021-2.695-6.021-6.024c0-3.325,2.695-6.021,6.021-6.021c3.329,0,6.024,2.695,6.024,6.021
			C73.529,129.668,70.834,132.363,67.505,132.363z M90.279,117.385H44.732V49.3h45.547V117.385z"/>
		<g>
			<path fill="#FFFFFF" d="M131.504,45.064l-2.532,7.669h-3.256L134,28.348h3.8l8.32,24.386h-3.365l-2.604-7.669H131.504z
				 M139.499,42.605l-2.423-7.02c-0.507-1.594-0.87-3.039-1.231-4.449h-0.105c-0.326,1.41-0.725,2.932-1.195,4.412l-2.387,7.057
				H139.499z"/>
			<path fill="#FFFFFF" d="M149.377,35.223l3.437,9.807c0.58,1.626,1.051,3.075,1.413,4.521h0.108
				c0.398-1.445,0.902-2.895,1.482-4.521l3.402-9.807h3.329l-6.876,17.511h-3.04l-6.653-17.511H149.377z"/>
			<path fill="#FFFFFF" d="M177.199,48.539c0,1.518,0.074,2.998,0.255,4.194h-2.858l-0.291-2.206h-0.107
				c-0.938,1.377-2.858,2.604-5.355,2.604c-3.546,0-5.353-2.495-5.353-5.027c0-4.235,3.763-6.55,10.526-6.514v-0.362
				c0-1.445-0.399-4.09-3.978-4.049c-1.667,0-3.364,0.467-4.596,1.3l-0.726-2.138c1.45-0.902,3.584-1.517,5.79-1.517
				c5.394,0,6.693,3.654,6.693,7.165V48.539z M174.087,43.797c-3.474-0.071-7.414,0.543-7.414,3.945
				c0,2.097,1.373,3.039,2.963,3.039c2.318,0,3.799-1.449,4.307-2.931c0.108-0.327,0.144-0.688,0.144-1.015V43.797z"/>
			<path fill="#FFFFFF" d="M183.635,32.003c-1.191,0-1.988-0.938-1.988-2.062c0-1.122,0.833-2.024,2.062-2.024
				c1.232,0,2.028,0.902,2.028,2.024c0,1.123-0.796,2.062-2.061,2.062H183.635z M182.119,52.733V35.223h3.184v17.511H182.119z"/>
			<path fill="#FFFFFF" d="M190.402,27.048h3.184v25.686h-3.184V27.048z"/>
			<path fill="#FFFFFF" d="M211.024,48.539c0,1.518,0.073,2.998,0.253,4.194h-2.861l-0.289-2.206h-0.106
				c-0.941,1.377-2.858,2.604-5.357,2.604c-3.542,0-5.353-2.495-5.353-5.027c0-4.235,3.763-6.55,10.53-6.514v-0.362
				c0-1.445-0.399-4.09-3.983-4.049c-1.662,0-3.365,0.467-4.591,1.3l-0.727-2.138c1.447-0.902,3.584-1.517,5.79-1.517
				c5.39,0,6.693,3.654,6.693,7.165V48.539z M207.913,43.797c-3.474-0.071-7.419,0.543-7.419,3.945c0,2.097,1.376,3.039,2.968,3.039
				c2.317,0,3.799-1.449,4.306-2.931c0.11-0.327,0.145-0.688,0.145-1.015V43.797z"/>
			<path fill="#FFFFFF" d="M215.94,27.048h3.185v10.961h0.075c1.12-1.952,3.145-3.184,5.966-3.184c4.344,0,7.383,3.618,7.383,8.9
				c0,6.295-3.98,9.406-7.886,9.406c-2.531,0-4.524-0.978-5.859-3.293h-0.077l-0.181,2.895h-2.745
				c0.108-1.196,0.141-2.966,0.141-4.521V27.048z M219.125,45.717c0,0.395,0.037,0.793,0.112,1.156
				c0.612,2.205,2.496,3.727,4.773,3.727c3.366,0,5.317-2.713,5.317-6.73c0-3.545-1.808-6.545-5.208-6.545
				c-2.17,0-4.2,1.518-4.814,3.904c-0.106,0.399-0.181,0.834-0.181,1.34V45.717z"/>
			<path fill="#FFFFFF" d="M236.345,27.048h3.183v25.686h-3.183V27.048z"/>
			<path fill="#FFFFFF" d="M246.437,44.521c0.071,4.307,2.784,6.078,5.97,6.078c2.282,0,3.69-0.398,4.849-0.869l0.576,2.242
				c-1.119,0.507-3.075,1.123-5.86,1.123c-5.354,0-8.61-3.582-8.61-8.827c0-5.318,3.146-9.479,8.252-9.479
				c5.71,0,7.197,5.031,7.197,8.247c0,0.652-0.037,1.159-0.109,1.521L246.437,44.521z M255.734,42.243
				c0.035-1.991-0.834-5.177-4.38-5.177c-3.251,0-4.629,2.967-4.883,5.177H255.734z"/>
			<path fill="#FFFFFF" d="M277.187,53.132c-4.703,0-8.395-3.474-8.395-9.009c0-5.861,3.873-9.298,8.684-9.298
				c5.027,0,8.428,3.654,8.428,8.972c0,6.514-4.523,9.335-8.682,9.335H277.187z M277.294,50.745c3.039,0,5.316-2.858,5.316-6.839
				c0-2.967-1.48-6.694-5.244-6.694c-3.729,0-5.354,3.474-5.354,6.803c0,3.836,2.17,6.73,5.246,6.73H277.294z"/>
			<path fill="#FFFFFF" d="M289.742,39.965c0-1.848-0.041-3.293-0.15-4.742h2.824l0.18,2.857h0.072
				c0.869-1.625,2.895-3.255,5.787-3.255c2.424,0,6.193,1.448,6.193,7.454v10.454h-3.189V42.638c0-2.817-1.047-5.208-4.053-5.208
				c-2.062,0-3.688,1.484-4.268,3.256c-0.145,0.398-0.217,0.979-0.217,1.485v10.562h-3.18V39.965z"/>
			<path fill="#FFFFFF" d="M320.958,31.028v4.194h4.555v2.424h-4.555v9.443c0,2.17,0.615,3.401,2.385,3.401
				c0.871,0,1.379-0.071,1.85-0.218l0.141,2.424c-0.611,0.217-1.59,0.435-2.818,0.435c-1.488,0-2.682-0.507-3.441-1.336
				c-0.865-0.979-1.229-2.536-1.229-4.598v-9.552h-2.711v-2.424h2.711v-3.22L320.958,31.028z"/>
			<path fill="#FFFFFF" d="M328.916,27.048h3.184v10.925h0.07c0.506-0.906,1.303-1.734,2.281-2.242
				c0.941-0.58,2.061-0.905,3.258-0.905c2.35,0,6.109,1.448,6.109,7.49v10.418h-3.18V42.678c0-2.857-1.051-5.213-4.055-5.213
				c-2.061,0-3.652,1.449-4.266,3.185c-0.182,0.435-0.219,0.905-0.219,1.521v10.562h-3.184V27.048z"/>
			<path fill="#FFFFFF" d="M350.621,44.521c0.072,4.307,2.785,6.078,5.969,6.078c2.279,0,3.691-0.398,4.852-0.869l0.576,2.242
				c-1.123,0.507-3.076,1.123-5.863,1.123c-5.352,0-8.609-3.582-8.609-8.827c0-5.318,3.148-9.479,8.25-9.479
				c5.715,0,7.201,5.031,7.201,8.247c0,0.652-0.037,1.159-0.109,1.521L350.621,44.521z M359.919,42.243
				c0.031-1.991-0.834-5.177-4.379-5.177c-3.254,0-4.635,2.967-4.885,5.177H359.919z"/>
			<path fill="#FFFFFF" d="M375.765,32.003c-1.197,0-1.994-0.938-1.994-2.062c0-1.122,0.832-2.024,2.064-2.024
				c1.229,0,2.025,0.902,2.025,2.024c0,1.123-0.797,2.062-2.066,2.062H375.765z M374.242,52.733V35.223h3.184v17.511H374.242z"/>
			<path fill="#FFFFFF" d="M382.634,28.674c1.518-0.286,3.51-0.506,6.043-0.506c3.109,0,5.391,0.723,6.834,2.028
				c1.34,1.155,2.174,2.93,2.174,5.1c0,2.206-0.652,3.944-1.92,5.208c-1.662,1.775-4.377,2.678-7.451,2.678
				c-0.938,0-1.807-0.037-2.531-0.214v9.766h-3.148V28.674z M385.783,40.396c0.686,0.182,1.594,0.254,2.605,0.254
				c3.834,0,6.113-1.88,6.113-5.173c0-3.256-2.279-4.811-5.752-4.811c-1.373,0-2.422,0.143-2.967,0.254V40.396z"/>
			<path fill="#FFFFFF" d="M401.412,27.048h3.186v10.925h0.072c0.506-0.906,1.303-1.734,2.277-2.242
				c0.943-0.58,2.066-0.905,3.258-0.905c2.352,0,6.113,1.448,6.113,7.49v10.418h-3.182V42.678c0-2.857-1.051-5.213-4.055-5.213
				c-2.059,0-3.65,1.449-4.268,3.185c-0.182,0.435-0.217,0.905-0.217,1.521v10.562h-3.186V27.048z"/>
			<path fill="#FFFFFF" d="M428.437,53.132c-4.703,0-8.395-3.474-8.395-9.009c0-5.861,3.873-9.298,8.686-9.298
				c5.027,0,8.426,3.654,8.426,8.972c0,6.514-4.521,9.335-8.68,9.335H428.437z M428.548,50.745c3.033,0,5.316-2.858,5.316-6.839
				c0-2.967-1.482-6.694-5.248-6.694c-3.725,0-5.355,3.474-5.355,6.803c0,3.836,2.17,6.73,5.246,6.73H428.548z"/>
			<path fill="#FFFFFF" d="M440.99,39.965c0-1.848-0.037-3.293-0.145-4.742h2.822l0.18,2.857h0.074
				c0.869-1.625,2.895-3.255,5.787-3.255c2.424,0,6.184,1.448,6.184,7.454v10.454h-3.18V42.638c0-2.817-1.051-5.208-4.055-5.208
				c-2.061,0-3.688,1.484-4.266,3.256c-0.146,0.398-0.223,0.979-0.223,1.485v10.562h-3.18V39.965z"/>
			<path fill="#FFFFFF" d="M462.695,44.521c0.072,4.307,2.787,6.078,5.971,6.078c2.277,0,3.689-0.398,4.846-0.869l0.58,2.242
				c-1.125,0.507-3.076,1.123-5.861,1.123c-5.354,0-8.611-3.582-8.611-8.827c0-5.318,3.148-9.479,8.248-9.479
				c5.717,0,7.201,5.031,7.201,8.247c0,0.652-0.035,1.159-0.107,1.521L462.695,44.521z M471.994,42.243
				c0.035-1.991-0.834-5.177-4.379-5.177c-3.258,0-4.631,2.967-4.885,5.177H471.994z"/>
		</g>
		<g>
			<path fill="#FFFFFF" d="M146.493,69.251l-21.451,63.144h9.823l6.405-19.389h20.77l6.585,19.389h10.095l-21.544-63.144H146.493z
				 M151.583,79.633c0.724,2.818,1.505,5.745,2.51,8.907l5.781,16.742h-16.453l5.701-16.851
				C149.991,85.699,150.814,82.748,151.583,79.633z"/>
			<path fill="#FFFFFF" d="M206.479,85.62c-6.507,0-11.719,2.511-15.188,7.285l-0.38-6.281h-8.738l0.052,0.804
				c0.256,3.912,0.365,8.219,0.365,14.402v48.67h9.551v-22.713c2.964,3.547,7.698,5.611,13.06,5.611
				c5.584,0,10.728-2.188,14.477-6.154c4.184-4.423,6.393-10.78,6.393-18.376c0-6.712-1.917-12.515-5.552-16.778
				C216.96,87.917,211.977,85.62,206.479,85.62z M204.099,93.528c8.516,0,12.328,7.89,12.328,15.706
				c0,10.084-4.863,16.348-12.69,16.348c-5.344,0-9.968-3.637-11.254-8.864c-0.221-0.812-0.341-1.884-0.341-3.094v-7.683
				c0-0.695,0.156-1.539,0.305-2.357c0.047-0.262,0.098-0.522,0.137-0.776C194.007,97.342,198.737,93.528,204.099,93.528z"/>
			<path fill="#FFFFFF" d="M255.674,85.62c-6.506,0-11.718,2.511-15.189,7.285l-0.38-6.281h-8.737l0.05,0.804
				c0.258,3.916,0.367,8.219,0.367,14.402v48.67h9.556v-22.713c2.962,3.547,7.693,5.611,13.054,5.611
				c5.586,0,10.729-2.188,14.483-6.154c4.18-4.423,6.389-10.78,6.389-18.376c0-6.712-1.92-12.515-5.553-16.778
				C266.156,87.917,261.171,85.62,255.674,85.62z M253.297,93.528c8.513,0,12.324,7.89,12.324,15.706
				c0,10.084-4.865,16.348-12.69,16.348c-5.342,0-9.969-3.637-11.255-8.864c-0.221-0.812-0.336-1.884-0.336-3.094v-7.683
				c0-0.699,0.151-1.547,0.305-2.365c0.047-0.258,0.094-0.515,0.138-0.769C243.202,97.342,247.933,93.528,253.297,93.528z"/>
			<path fill="#FFFFFF" d="M317.304,96.006c-8.916-3.453-11.773-6.169-11.773-11.186c0-4.225,3.357-8.484,10.859-8.484
				c6.189,0,10.15,2.152,11.215,2.814l0.811,0.5l2.695-7.973l-0.533-0.312c-1.6-0.938-6.16-3.122-13.912-3.122
				c-12.184,0-20.691,7.193-20.691,17.488c0,8.303,5.328,14.105,16.77,18.264c8.105,3.031,11.123,6.136,11.123,11.457
				c0,6.023-4.654,9.762-12.143,9.762c-4.877,0-9.896-1.423-13.77-3.904l-0.828-0.532l-2.564,8.157l0.471,0.312
				c3.605,2.408,10.395,4.15,16.145,4.15c16.42,0,22.242-10.012,22.242-18.586C333.419,105.975,328.751,100.522,317.304,96.006z"/>
			<path fill="#FFFFFF" d="M350.617,75.746l-9.371,2.941v7.937h-6.857v7.636h6.857v23.389c0,5.654,1.082,9.617,3.309,12.121
				c2.135,2.34,5.418,3.629,9.242,3.629c3.613,0,6.178-0.713,7.385-1.141l0.535-0.189l-0.457-7.649l-0.916,0.282
				c-1.207,0.37-2.449,0.514-4.443,0.514c-3.703,0-5.283-2.344-5.283-7.842V94.26h11.523v-7.636h-11.523V75.746z"/>
			<path fill="#FFFFFF" d="M385.816,85.62c-13.367,0-22.701,9.976-22.701,24.255c0,13.852,9.033,23.523,21.969,23.523h0.09
				c10.936,0,22.701-7.618,22.701-24.346c0-6.803-2.104-12.645-6.088-16.898C397.779,87.881,392.255,85.62,385.816,85.62z
				 M385.541,93.162c8.596,0,12.506,8.378,12.506,16.166c0,9.577-5.338,16.528-12.688,16.528h-0.092
				c-7.246,0-12.506-6.835-12.506-16.253C372.761,101.421,376.712,93.162,385.541,93.162z"/>
			<path fill="#FFFFFF" d="M437.136,86.062l-0.572-0.146c-0.842-0.21-1.529-0.297-2.377-0.297c-4.998,0-9.482,2.942-11.979,7.69
				l-0.281-6.687h-8.572l0.055,0.804c0.254,3.782,0.361,8.027,0.361,13.758l-0.09,31.209h9.555v-24.349
				c0-1.325,0.092-2.579,0.262-3.702c1.08-5.85,5.025-9.629,10.053-9.629c0.979,0,1.748,0.08,2.564,0.16l1.021,0.105V86.062z"/>
			<path fill="#FFFFFF" d="M458.617,85.529c-12.719,0-21.604,10.161-21.604,24.711c0,14.012,8.838,23.067,22.516,23.067
				c7.193,0,12.197-1.579,15.127-2.901l0.574-0.26l-1.834-7.118l-0.799,0.321c-2.604,1.059-6.062,2.141-11.971,2.141
				c-4.15,0-13.721-1.369-14.309-13.852l30.838,0.092l0.123-0.609c0.195-0.971,0.289-2.278,0.289-3.988
				C477.568,97.168,472.605,85.529,458.617,85.529z M457.978,92.797c2.91,0,5.271,0.9,7.014,2.676
				c2.748,2.797,3.23,6.916,3.289,8.893h-21.785C447.38,98.849,450.832,92.797,457.978,92.797z"/>
		</g>
	</g>
</g>
</svg>
